<svg width="512" height="512" viewBox="0 0 512 512" fill="none" xmlns="http://www.w3.org/2000/svg">
<g clip-path="url(#clip0_1419_4)">
<path d="M191.5 0.0999756C172.4 0.0999756 154.1 7.69998 140.6 21.2L21.2 140.6C7.69998 154.1 0.0999756 172.4 0.0999756 191.5V320.5C0.0999756 339.6 7.69998 357.9 21.2 371.4L140.6 490.8C154.1 504.3 172.4 511.9 191.5 511.9H320.5C339.6 511.9 357.9 504.3 371.4 490.8L490.8 371.4C504.3 357.9 511.9 339.6 511.9 320.5V191.5C511.9 172.4 504.3 154.1 490.8 140.6L371.4 21.2C357.9 7.69998 339.6 0.0999756 320.5 0.0999756H191.5Z" fill="#FBC536"/>
<g clip-path="url(#clip1_1419_4)">
<path d="M256 135.75C256 128.39 258.939 121.332 264.172 116.128C269.404 110.924 276.5 108 283.9 108C291.3 108 298.396 110.924 303.628 116.128C308.861 121.332 311.8 128.39 311.8 135.75C311.8 143.11 308.861 150.168 303.628 155.372C298.396 160.576 291.3 163.5 283.9 163.5C276.5 163.5 269.404 160.576 264.172 155.372C258.939 150.168 256 143.11 256 135.75ZM236.528 223.22C235.947 223.452 235.424 223.683 234.843 223.914L230.193 225.938C220.66 230.158 213.336 238.194 210.023 248.022L208.512 252.531C205.257 262.244 194.736 267.447 184.971 264.209C175.206 260.972 169.975 250.508 173.23 240.795L174.741 236.286C181.368 216.572 196.015 200.5 215.08 192.059L219.73 190.036C231.82 184.717 244.898 181.942 258.151 181.942C284.074 181.942 307.441 197.436 317.38 221.197L326.331 242.53L338.77 248.716C347.954 253.283 351.674 264.383 347.082 273.517C342.49 282.652 331.33 286.352 322.146 281.784L306.569 274.095C300.582 271.089 295.874 266.117 293.316 259.931L287.736 246.634L276.518 284.502L305.29 315.72C308.429 319.131 310.638 323.236 311.8 327.745L325.169 380.991C327.668 390.877 321.623 400.936 311.626 403.422C301.628 405.908 291.573 399.895 289.073 389.952L276.286 339.019L235.191 294.445C226.589 285.137 223.392 272.13 226.647 259.931L236.47 223.22H236.528ZM202.932 338.094L217.463 302.019C218.684 303.753 220.079 305.372 221.532 306.991L245.189 332.659L236.761 353.587C235.366 357.056 233.273 360.236 230.599 362.895L194.736 398.566C187.471 405.792 175.671 405.792 168.406 398.566C161.14 391.339 161.14 379.603 168.406 372.377L202.932 338.094Z" fill="black"/>
</g>
</g>
<defs>
<clipPath id="clip0_1419_4">
<rect width="512" height="512" fill="white"/>
</clipPath>
<clipPath id="clip1_1419_4">
<rect width="186" height="296" fill="white" transform="translate(163 108)"/>
</clipPath>
</defs>
</svg>
