<svg width="512" height="512" viewBox="0 0 512 512" fill="none" xmlns="http://www.w3.org/2000/svg">
<g clip-path="url(#clip0_1423_9)">
<path d="M290.5 51.8C283.3 39.5 270.2 32 256 32C241.8 32 228.7 39.5 221.5 51.8L5.50002 419.8C-1.79998 432.2 -1.79998 447.5 5.30002 459.9C12.4 472.3 25.7 480 40 480H472C486.3 480 499.6 472.3 506.7 459.9C513.8 447.5 513.7 432.1 506.5 419.8L290.5 51.8Z" fill="#FBC536"/>
<path d="M255.981 171.75C255.981 164.39 258.921 157.332 264.153 152.128C269.385 146.924 276.482 144 283.881 144C291.281 144 298.377 146.924 303.61 152.128C308.842 157.332 311.781 164.39 311.781 171.75C311.781 179.11 308.842 186.168 303.61 191.372C298.377 196.576 291.281 199.5 283.881 199.5C276.482 199.5 269.385 196.576 264.153 191.372C258.921 186.168 255.981 179.11 255.981 171.75ZM236.51 259.22C235.928 259.452 235.405 259.683 234.824 259.914L230.174 261.938C220.641 266.158 213.318 274.194 210.005 284.022L208.493 288.531C205.238 298.244 194.718 303.447 184.953 300.209C175.188 296.972 169.956 286.508 173.211 276.795L174.723 272.286C181.349 252.572 195.996 236.5 215.061 228.059L219.711 226.036C231.801 220.717 244.88 217.942 258.132 217.942C284.056 217.942 307.422 233.436 317.361 257.197L326.313 278.53L338.751 284.716C347.935 289.283 351.655 300.383 347.063 309.517C342.471 318.652 331.311 322.352 322.128 317.784L306.55 310.095C300.563 307.089 295.855 302.117 293.298 295.931L287.718 282.634L276.5 320.502L305.271 351.72C308.41 355.131 310.619 359.236 311.781 363.745L325.15 416.991C327.65 426.877 321.605 436.936 311.607 439.422C301.61 441.908 291.554 435.895 289.055 425.952L276.267 375.019L235.173 330.445C226.57 321.137 223.373 308.13 226.628 295.931L236.451 259.22H236.51ZM202.913 374.094L217.445 338.019C218.665 339.753 220.06 341.372 221.513 342.991L245.17 368.659L236.742 389.587C235.347 393.056 233.255 396.236 230.581 398.895L194.718 434.566C187.452 441.792 175.653 441.792 168.387 434.566C161.121 427.339 161.121 415.603 168.387 408.377L202.913 374.094Z" fill="black"/>
</g>
<defs>
<clipPath id="clip0_1423_9">
<rect width="512" height="512" fill="white"/>
</clipPath>
</defs>
</svg>
