<svg width="448" height="448" viewBox="0 0 448 448" fill="none" xmlns="http://www.w3.org/2000/svg">
<path d="M64 0C28.7 0 0 28.7 0 64V384C0 419.3 28.7 448 64 448H384C419.3 448 448 419.3 448 384V64C448 28.7 419.3 0 384 0H64Z" fill="#128C1E"/>
<path d="M222.042 93.8588C222.042 85.8936 225.206 78.2547 230.838 72.6225C236.47 66.9903 244.109 63.8262 252.074 63.8262C260.039 63.8262 267.678 66.9903 273.311 72.6225C278.943 78.2547 282.107 85.8936 282.107 93.8588C282.107 101.824 278.943 109.463 273.311 115.095C267.678 120.727 260.039 123.891 252.074 123.891C244.109 123.891 236.47 120.727 230.838 115.095C225.206 109.463 222.042 101.824 222.042 93.8588ZM254.139 208.17L242.189 255.91L273.285 287.006C278.916 292.637 282.107 300.27 282.107 308.216V364.152C282.107 375.227 273.16 384.174 262.085 384.174C251.011 384.174 242.063 375.227 242.063 364.152V312.408L195.826 266.171C185.94 256.285 181.936 242.02 185.252 228.442L198.016 175.885C203.209 154.55 224.732 141.536 246.005 146.854C257.893 149.857 268.279 157.115 275.037 167.313L292.806 193.967H312.139V178.951C312.139 170.63 318.834 163.935 327.156 163.935C335.477 163.935 342.172 170.63 342.172 178.951V213.864C342.172 213.927 342.172 213.989 342.172 213.989V369.158C342.172 377.479 335.477 384.174 327.156 384.174C318.834 384.174 312.139 377.479 312.139 369.158V234.011H287.488C277.477 234.011 268.092 229.005 262.523 220.621L254.202 208.108L254.139 208.17ZM152.654 359.084L175.303 272.803C177.181 275.431 179.308 277.934 181.623 280.249L207.839 306.464L191.321 369.22C188.505 379.919 177.556 386.301 166.857 383.486C156.158 380.67 149.776 369.721 152.591 359.022L152.654 359.084ZM187.379 142.599L165.355 230.57C163.478 238.14 156.033 243.021 148.337 241.769L118.367 236.764C109.607 235.325 104.039 226.565 106.354 217.993L121.871 160.806C127.814 139.033 147.586 123.891 170.173 123.891H172.801C182.561 123.891 189.757 133.089 187.379 142.537V142.599Z" fill="white"/>
</svg>
