<svg width="448" height="448" viewBox="0 0 448 448" fill="none" xmlns="http://www.w3.org/2000/svg">
<path d="M64 0C28.7 0 0 28.7 0 64V384C0 419.3 28.7 448 64 448H384C419.3 448 448 419.3 448 384V64C448 28.7 419.3 0 384 0H64Z" fill="white"/>
<path d="M64 0C28.7 0 0 28.7 0 64V384C0 419.3 28.7 448 64 448H384C419.3 448 448 419.3 448 384V64C448 28.7 419.3 0 384 0H64ZM192 224H240C257.7 224 272 209.7 272 192C272 174.3 257.7 160 240 160H192V224ZM240 288H192V320C192 337.7 177.7 352 160 352C142.3 352 128 337.7 128 320V136C128 113.9 145.9 96 168 96H240C293 96 336 139 336 192C336 245 293 288 240 288Z" fill="#1C85B3"/>
</svg>
