<svg width="448" height="448" viewBox="0 0 448 448" fill="none" xmlns="http://www.w3.org/2000/svg">
<path d="M64 0C28.7 0 0 28.7 0 64V384C0 419.3 28.7 448 64 448H384C419.3 448 448 419.3 448 384V64C448 28.7 419.3 0 384 0H64Z" fill="#C51C9F"/>
<path d="M153.188 122.238C153.188 113.242 149.615 104.614 143.253 98.2527C136.892 91.8914 128.264 88.3176 119.268 88.3176C110.271 88.3176 101.644 91.8914 95.2823 98.2527C88.9209 104.614 85.3472 113.242 85.3472 122.238C85.3472 131.235 88.9209 139.862 95.2823 146.224C101.644 152.585 110.271 156.159 119.268 156.159C128.264 156.159 136.892 152.585 143.253 146.224C149.615 139.862 153.188 131.235 153.188 122.238ZM65.1538 212.022L62.9808 238.151C61.6558 253.893 71.3019 267.885 85.3472 272.92V334.242C85.3472 348.287 96.7424 359.682 110.788 359.682H127.748C141.793 359.682 153.188 348.287 153.188 334.242V272.92C167.234 267.885 176.88 253.946 175.555 238.151L173.382 212.022C171.58 190.026 153.188 173.119 131.14 173.119H107.396C85.3472 173.119 66.9559 190.026 65.1538 212.022ZM221.03 88.3176C213.98 88.3176 208.309 93.9887 208.309 101.038V346.962C208.309 354.011 213.98 359.682 221.03 359.682C228.079 359.682 233.75 354.011 233.75 346.962V101.038C233.75 93.9887 228.079 88.3176 221.03 88.3176ZM322.791 156.159C331.788 156.159 340.415 152.585 346.777 146.224C353.138 139.862 356.712 131.235 356.712 122.238C356.712 113.242 353.138 104.614 346.777 98.2527C340.415 91.8914 331.788 88.3176 322.791 88.3176C313.795 88.3176 305.167 91.8914 298.806 98.2527C292.445 104.614 288.871 113.242 288.871 122.238C288.871 131.235 292.445 139.862 298.806 146.224C305.167 152.585 313.795 156.159 322.791 156.159ZM314.47 173.119C299.312 173.119 286.009 183.136 281.875 197.712L261.151 270.217C258.077 281.029 266.186 291.841 277.476 291.841H288.871V334.242C288.871 348.287 300.266 359.682 314.311 359.682H331.271C345.317 359.682 356.712 348.287 356.712 334.242V291.841H368.16C379.449 291.841 387.558 281.082 384.484 270.217L363.761 197.712C359.627 183.136 346.271 173.119 331.165 173.119H314.47Z" fill="white"/>
</svg>
